<?xml version="1.0" encoding="utf-8"?>
<!-- Generator: Adobe Illustrator 22.1.0, SVG Export Plug-In . SVG Version: 6.00 Build 0)  -->
<svg version="1.1" id="Capa_1" xmlns="http://www.w3.org/2000/svg" xmlns:xlink="http://www.w3.org/1999/xlink" x="0px" y="0px"
	 viewBox="0 0 32 32" style="enable-background:new 0 0 32 32;" xml:space="preserve">
<style type="text/css">
	.st0{filter:url(#Adobe_OpacityMaskFilter);}
	.st1{fill:#FFFFFF;}
	.st2{mask:url(#mask-2_1_);fill:#FFFFFF;}
</style>
<title>twitter</title>
<desc>Created with Sketch.</desc>
<g id="Page-1">
	<g id="Desktop-HD-Copy-10" transform="translate(-1907.000000, -666.000000)">
		<g id="Group-3" transform="translate(1916.000000, 675.666667)">
			<g id="Clip-2">
			</g>
			<defs>
				<filter id="Adobe_OpacityMaskFilter" filterUnits="userSpaceOnUse" x="0" y="0" width="14.2" height="11.7">
					<feColorMatrix  type="matrix" values="1 0 0 0 0  0 1 0 0 0  0 0 1 0 0  0 0 0 1 0"/>
				</filter>
			</defs>
			<mask maskUnits="userSpaceOnUse" x="0" y="0" width="14.2" height="11.7" id="mask-2_1_">
				<g class="st0">
					<polygon id="path-1_1_" class="st1" points="0,0 14.2,0 14.2,11.7 0,11.7 					"/>
				</g>
			</mask>
			<path id="Fill-1" class="st2" d="M0,10.4c1.5,0.1,2.9-0.3,4.2-1.3C2.9,9,2,8.4,1.5,7.2c0.4,0,0.8,0,1.2-0.1
				C1.3,6.6,0.5,5.6,0.4,4.2c0.4,0.1,0.8,0.2,1.2,0.3c0,0,0,0,0-0.1C0.4,3.4,0.1,2.1,0.8,0.5c1.6,1.9,3.6,2.9,6.1,3.1
				C6.8,3,6.9,2.4,7.1,1.8c0.8-1.8,3.2-2.4,4.7-1c0.2,0.1,0.3,0.2,0.5,0.1c0.5-0.2,1-0.4,1.5-0.6c-0.2,0.6-0.6,1.1-1.1,1.6
				c0.5-0.1,1-0.3,1.5-0.4c0,0,0,0,0.1,0.1c-0.4,0.4-0.7,0.8-1.2,1.1c-0.2,0.2-0.3,0.4-0.3,0.7c0,3.4-2.2,6.6-5.3,7.8
				C4.9,12.1,2.4,11.8,0,10.4"/>
		</g>
	</g>
</g>
</svg>
