<?xml version="1.0" encoding="utf-8"?>
<!-- Generator: Adobe Illustrator 22.1.0, SVG Export Plug-In . SVG Version: 6.00 Build 0)  -->
<svg version="1.1" id="Capa_1" xmlns="http://www.w3.org/2000/svg" xmlns:xlink="http://www.w3.org/1999/xlink" x="0px" y="0px"
	 viewBox="0 0 32 32" style="enable-background:new 0 0 32 32;" xml:space="preserve">
<style type="text/css">
	.st0{clip-path:url(#SVGID_2_);}
</style>
<title>link</title>
<desc>Created with Sketch.</desc>
<g>
	<g>
		<defs>
			<rect id="SVGID_1_" x="-1907.4" y="-622.2" width="2346" height="8362"/>
		</defs>
		<clipPath id="SVGID_2_">
			<use xlink:href="#SVGID_1_"  style="overflow:visible;"/>
		</clipPath>
		<g class="st0">
			<g>
				<g>
					<defs>
						<path id="SVGID_3_" d="M18.8,16h-1.9v6.9H14V16h-1.3v-2.4H14c0-0.3,0-0.5,0-0.8c0-0.5,0-1,0.1-1.5c0.3-1.3,1.1-2,2.5-2.1
							c0.8-0.1,1.6,0,2.4,0v2.3c-0.4,0-0.9,0-1.3,0c-0.6,0-0.8,0.2-0.8,0.8c0,0.4,0,0.8,0,1.2c0,0,0,0,0,0.1H19
							C18.9,14.4,18.8,15.2,18.8,16"/>
					</defs>
					<use xlink:href="#SVGID_3_"  style="overflow:visible;fill-rule:evenodd;clip-rule:evenodd;fill:#0C1558;"/>
					<clipPath id="SVGID_4_">
						<use xlink:href="#SVGID_3_"  style="overflow:visible;"/>
					</clipPath>
				</g>
			</g>
		</g>
	</g>
</g>
</svg>
