<?xml version="1.0" encoding="utf-8"?>
<!-- Generator: Adobe Illustrator 22.1.0, SVG Export Plug-In . SVG Version: 6.00 Build 0)  -->
<svg version="1.1" id="Capa_1" xmlns="http://www.w3.org/2000/svg" xmlns:xlink="http://www.w3.org/1999/xlink" x="0px" y="0px"
	 viewBox="0 0 32 32" style="enable-background:new 0 0 32 32;" xml:space="preserve">
<style type="text/css">
	.st0{fill:#FFFFFF;}
	.st1{filter:url(#Adobe_OpacityMaskFilter);}
	.st2{mask:url(#mask-2_1_);fill:#FFFFFF;}
	.st3{filter:url(#Adobe_OpacityMaskFilter_1_);}
	.st4{mask:url(#mask-2_2_);fill:#FFFFFF;}
</style>
<title>linkedin</title>
<desc>Created with Sketch.</desc>
<g id="Page-1">
	<g id="Desktop-HD-Copy-10" transform="translate(-1907.000000, -579.000000)">
		<g id="Group-6" transform="translate(1917.000000, 588.000000)">
			<path id="Fill-1" class="st0" d="M12.4,11.9H9.8v-1.4c0-1,0-1.9,0-2.9c0-0.2,0-0.5-0.1-0.7C9.5,6.2,9.1,5.8,8.4,5.8
				C7.7,5.8,7.1,6.3,7,6.9c0,0.2-0.1,0.5-0.1,0.7c0,1.4,0,2.8,0,4.2H4.3v-8h2.6V5C7,4.9,7.1,4.8,7.1,4.8c0.8-1.1,1.9-1.3,3.1-1
				C11.4,4.1,12,4.9,12.3,6c0.1,0.4,0.1,0.8,0.1,1.2c0,1.5,0,2.9,0,4.4C12.4,11.7,12.4,11.8,12.4,11.9"/>
			<g id="Clip-4">
			</g>
			<defs>
				<filter id="Adobe_OpacityMaskFilter" filterUnits="userSpaceOnUse" x="0.2" y="3.9" width="2.6" height="8">
					<feColorMatrix  type="matrix" values="1 0 0 0 0  0 1 0 0 0  0 0 1 0 0  0 0 0 1 0"/>
				</filter>
			</defs>
			<mask maskUnits="userSpaceOnUse" x="0.2" y="3.9" width="2.6" height="8" id="mask-2_1_">
				<g class="st1">
					<polygon id="path-1_1_" class="st0" points="0,11.9 12.4,11.9 12.4,0 0,0 					"/>
				</g>
			</mask>
			<polygon id="Fill-3" class="st2" points="0.2,11.9 2.8,11.9 2.8,3.9 0.2,3.9 			"/>
			<defs>
				<filter id="Adobe_OpacityMaskFilter_1_" filterUnits="userSpaceOnUse" x="0" y="0" width="3" height="2.8">
					<feColorMatrix  type="matrix" values="1 0 0 0 0  0 1 0 0 0  0 0 1 0 0  0 0 0 1 0"/>
				</filter>
			</defs>
			<mask maskUnits="userSpaceOnUse" x="0" y="0" width="3" height="2.8" id="mask-2_2_">
				<g class="st3">
					<polygon id="path-1_2_" class="st0" points="0,11.9 12.4,11.9 12.4,0 0,0 					"/>
				</g>
			</mask>
			<path id="Fill-5" class="st4" d="M1.5,2.8C0.6,2.8,0,2.2,0,1.4C0,0.6,0.6,0,1.5,0C2.3,0,3,0.6,3,1.4C3,2.2,2.4,2.8,1.5,2.8"/>
		</g>
	</g>
</g>
</svg>
